{
	"asset":{
		"generator":"Khronos glTF Blender I/O v3.6.27",
		"version":"2.0"
	},
	"scene":0,
	"scenes":[
		{
			"name":"Scene",
			"nodes":[
				0
			]
		}
	],
	"nodes":[
		{
			"mesh":0,
			"name":"Trazar"
		}
	],
	"materials":[
		{
			"doubleSided":true,
			"name":"Material.001",
			"pbrMetallicRoughness":{
				"baseColorFactor":[
					0.017260229215025902,
					0.3301068842411041,
					0.8000000715255737,
					1
				],
				"metallicFactor":0,
				"roughnessFactor":0.5
			}
		}
	],
	"meshes":[
		{
			"name":"Mesh",
			"primitives":[
				{
					"attributes":{
						"POSITION":0,
						"NORMAL":1
					},
					"indices":2,
					"material":0
				}
			]
		}
	],
	"accessors":[
		{
			"bufferView":0,
			"componentType":5126,
			"count":879,
			"max":[
				0.796075165271759,
				0.20000003278255463,
				0.8258931636810303
			],
			"min":[
				-0.9491267800331116,
				-3.2409111838660465e-08,
				-0.6434490084648132
			],
			"type":"VEC3"
		},
		{
			"bufferView":1,
			"componentType":5126,
			"count":879,
			"type":"VEC3"
		},
		{
			"bufferView":2,
			"componentType":5123,
			"count":2493,
			"type":"SCALAR"
		}
	],
	"bufferViews":[
		{
			"buffer":0,
			"byteLength":10548,
			"byteOffset":0,
			"target":34962
		},
		{
			"buffer":0,
			"byteLength":10548,
			"byteOffset":10548,
			"target":34962
		},
		{
			"buffer":0,
			"byteLength":4986,
			"byteOffset":21096,
			"target":34963
		}
	],
	"buffers":[
		{
			"byteLength":26084,
			"uri":"data:application/octet-stream;base64,"
		}
	]
}
