{
	"asset":{
		"generator":"Khronos glTF Blender I/O v3.6.27",
		"version":"2.0"
	},
	"scene":0,
	"scenes":[
		{
			"name":"Scene",
			"nodes":[
				0
			]
		}
	],
	"nodes":[
		{
			"mesh":0,
			"name":"Cilindro",
			"translation":[
				0,
				1,
				0
			]
		}
	],
	"materials":[
		{
			"doubleSided":true,
			"name":"Material.001",
			"pbrMetallicRoughness":{
				"baseColorFactor":[
					0.8000000715255737,
					0.009231775999069214,
					0.010791151784360409,
					1
				],
				"metallicFactor":0,
				"roughnessFactor":0.5
			}
		}
	],
	"meshes":[
		{
			"name":"Cilindro",
			"primitives":[
				{
					"attributes":{
						"COLOR_0":0,
						"POSITION":1,
						"NORMAL":2,
						"TEXCOORD_0":3
					},
					"indices":4,
					"material":0
				}
			]
		}
	],
	"accessors":[
		{
			"bufferView":0,
			"componentType":5123,
			"count":488,
			"normalized":true,
			"type":"VEC4"
		},
		{
			"bufferView":1,
			"componentType":5126,
			"count":488,
			"max":[
				0.9975981712341309,
				-0.5408798456192017,
				0.9975981712341309
			],
			"min":[
				-0.9975981712341309,
				-0.9234799742698669,
				-0.9975981712341309
			],
			"type":"VEC3"
		},
		{
			"bufferView":2,
			"componentType":5126,
			"count":488,
			"type":"VEC3"
		},
		{
			"bufferView":3,
			"componentType":5126,
			"count":488,
			"type":"VEC2"
		},
		{
			"bufferView":4,
			"componentType":5123,
			"count":948,
			"type":"SCALAR"
		}
	],
	"bufferViews":[
		{
			"buffer":0,
			"byteLength":3904,
			"byteOffset":0,
			"target":34962
		},
		{
			"buffer":0,
			"byteLength":5856,
			"byteOffset":3904,
			"target":34962
		},
		{
			"buffer":0,
			"byteLength":5856,
			"byteOffset":9760,
			"target":34962
		},
		{
			"buffer":0,
			"byteLength":3904,
			"byteOffset":15616,
			"target":34962
		},
		{
			"buffer":0,
			"byteLength":1896,
			"byteOffset":19520,
			"target":34963
		}
	],
	"buffers":[
		{
			"byteLength":21416,
			"uri":"data:application/octet-stream;base64,"
		}
	]
}
