{
	"asset":{
		"generator":"Khronos glTF Blender I/O v3.6.27",
		"version":"2.0"
	},
	"scene":0,
	"scenes":[
		{
			"name":"Scene",
			"nodes":[
				0,
				1
			]
		}
	],
	"nodes":[
		{
			"mesh":0,
			"name":"Cilindro",
			"rotation":[
				1,
				0,
				0,
				0
			],
			"scale":[
				0.7750066518783569,
				0.2325020432472229,
				0.7750066518783569
			],
			"translation":[
				-0.012245744466781616,
				0.30000001192092896,
				0.7802425026893616
			]
		},
		{
			"mesh":1,
			"name":"Cubo",
			"scale":[
				0.918759286403656,
				0.229689821600914,
				0.18375186622142792
			],
			"translation":[
				0,
				0.30000001192092896,
				-0.1881052702665329
			]
		}
	],
	"materials":[
		{
			"doubleSided":true,
			"name":"Material.013",
			"pbrMetallicRoughness":{
				"baseColorFactor":[
					0.005181191489100456,
					0,
					0.5209953784942627,
					1
				],
				"metallicFactor":0,
				"roughnessFactor":0.5
			}
		},
		{
			"doubleSided":true,
			"name":"Material.022",
			"pbrMetallicRoughness":{
				"baseColorFactor":[
					0.005181191489100456,
					0,
					0.5209953784942627,
					1
				],
				"metallicFactor":0,
				"roughnessFactor":0.5
			}
		}
	],
	"meshes":[
		{
			"name":"Cilindro.006",
			"primitives":[
				{
					"attributes":{
						"POSITION":0,
						"NORMAL":1,
						"TEXCOORD_0":2
					},
					"indices":3,
					"material":0
				}
			]
		},
		{
			"name":"Cubo.002",
			"primitives":[
				{
					"attributes":{
						"POSITION":4,
						"NORMAL":5,
						"TEXCOORD_0":6
					},
					"indices":7,
					"material":1
				}
			]
		}
	],
	"accessors":[
		{
			"bufferView":0,
			"componentType":5126,
			"count":220,
			"max":[
				1,
				1,
				1
			],
			"min":[
				-1,
				-1,
				0
			],
			"type":"VEC3"
		},
		{
			"bufferView":1,
			"componentType":5126,
			"count":220,
			"type":"VEC3"
		},
		{
			"bufferView":2,
			"componentType":5126,
			"count":220,
			"type":"VEC2"
		},
		{
			"bufferView":3,
			"componentType":5123,
			"count":426,
			"type":"SCALAR"
		},
		{
			"bufferView":4,
			"componentType":5126,
			"count":24,
			"max":[
				1,
				1,
				1
			],
			"min":[
				-1,
				-1,
				-1
			],
			"type":"VEC3"
		},
		{
			"bufferView":5,
			"componentType":5126,
			"count":24,
			"type":"VEC3"
		},
		{
			"bufferView":6,
			"componentType":5126,
			"count":24,
			"type":"VEC2"
		},
		{
			"bufferView":7,
			"componentType":5123,
			"count":36,
			"type":"SCALAR"
		}
	],
	"bufferViews":[
		{
			"buffer":0,
			"byteLength":2640,
			"byteOffset":0,
			"target":34962
		},
		{
			"buffer":0,
			"byteLength":2640,
			"byteOffset":2640,
			"target":34962
		},
		{
			"buffer":0,
			"byteLength":1760,
			"byteOffset":5280,
			"target":34962
		},
		{
			"buffer":0,
			"byteLength":852,
			"byteOffset":7040,
			"target":34963
		},
		{
			"buffer":0,
			"byteLength":288,
			"byteOffset":7892,
			"target":34962
		},
		{
			"buffer":0,
			"byteLength":288,
			"byteOffset":8180,
			"target":34962
		},
		{
			"buffer":0,
			"byteLength":192,
			"byteOffset":8468,
			"target":34962
		},
		{
			"buffer":0,
			"byteLength":72,
			"byteOffset":8660,
			"target":34963
		}
	],
	"buffers":[
		{
			"byteLength":8732,
			"uri":"data:application/octet-stream;base64,"
		}
	]
}
