{
	"asset":{
		"generator":"Khronos glTF Blender I/O v3.6.27",
		"version":"2.0"
	},
	"scene":0,
	"scenes":[
		{
			"name":"Scene",
			"nodes":[
				0,
				1
			]
		}
	],
	"nodes":[
		{
			"mesh":0,
			"name":"Cubo.001",
			"scale":[
				0.6000000238418579,
				0.20000000298023224,
				0.07999999821186066
			],
			"translation":[
				0,
				0.20000000298023224,
				-0.6194441318511963
			]
		},
		{
			"mesh":1,
			"name":"Texto",
			"scale":[
				1.7999999523162842,
				1,
				1.5
			],
			"translation":[
				-0.20364880561828613,
				0.20000000298023224,
				0.4564569890499115
			]
		}
	],
	"materials":[
		{
			"doubleSided":true,
			"name":"Material.007",
			"pbrMetallicRoughness":{
				"baseColorFactor":[
					0.7991029620170593,
					0.26635536551475525,
					0.013702175579965115,
					1
				],
				"metallicFactor":0,
				"roughnessFactor":0.5
			}
		},
		{
			"doubleSided":true,
			"name":"Material.010",
			"pbrMetallicRoughness":{
				"baseColorFactor":[
					0.7991029620170593,
					0.26635536551475525,
					0.013702175579965115,
					1
				],
				"metallicFactor":0,
				"roughnessFactor":0.5
			}
		}
	],
	"meshes":[
		{
			"name":"Cubo.001",
			"primitives":[
				{
					"attributes":{
						"POSITION":0,
						"NORMAL":1,
						"TEXCOORD_0":2
					},
					"indices":3,
					"material":0
				}
			]
		},
		{
			"name":"Texto.001",
			"primitives":[
				{
					"attributes":{
						"POSITION":4,
						"NORMAL":5,
						"TEXCOORD_0":6
					},
					"indices":7,
					"material":1
				}
			]
		}
	],
	"accessors":[
		{
			"bufferView":0,
			"componentType":5126,
			"count":24,
			"max":[
				1,
				1,
				1
			],
			"min":[
				-1,
				-1,
				-1
			],
			"type":"VEC3"
		},
		{
			"bufferView":1,
			"componentType":5126,
			"count":24,
			"type":"VEC3"
		},
		{
			"bufferView":2,
			"componentType":5126,
			"count":24,
			"type":"VEC2"
		},
		{
			"bufferView":3,
			"componentType":5123,
			"count":36,
			"type":"SCALAR"
		},
		{
			"bufferView":4,
			"componentType":5126,
			"count":202,
			"max":[
				0.17400000989437103,
				0.20000000298023224,
				0.23000000417232513
			],
			"min":[
				-0.06200000271201134,
				-0.20000000298023224,
				-0.6820000410079956
			],
			"type":"VEC3"
		},
		{
			"bufferView":5,
			"componentType":5126,
			"count":202,
			"type":"VEC3"
		},
		{
			"bufferView":6,
			"componentType":5126,
			"count":202,
			"type":"VEC2"
		},
		{
			"bufferView":7,
			"componentType":5123,
			"count":588,
			"type":"SCALAR"
		}
	],
	"bufferViews":[
		{
			"buffer":0,
			"byteLength":288,
			"byteOffset":0,
			"target":34962
		},
		{
			"buffer":0,
			"byteLength":288,
			"byteOffset":288,
			"target":34962
		},
		{
			"buffer":0,
			"byteLength":192,
			"byteOffset":576,
			"target":34962
		},
		{
			"buffer":0,
			"byteLength":72,
			"byteOffset":768,
			"target":34963
		},
		{
			"buffer":0,
			"byteLength":2424,
			"byteOffset":840,
			"target":34962
		},
		{
			"buffer":0,
			"byteLength":2424,
			"byteOffset":3264,
			"target":34962
		},
		{
			"buffer":0,
			"byteLength":1616,
			"byteOffset":5688,
			"target":34962
		},
		{
			"buffer":0,
			"byteLength":1176,
			"byteOffset":7304,
			"target":34963
		}
	],
	"buffers":[
		{
			"byteLength":8480,
			"uri":"data:application/octet-stream;base64,"
		}
	]
}
