{
	"asset":{
		"generator":"Khronos glTF Blender I/O v3.6.27",
		"version":"2.0"
	},
	"scene":0,
	"scenes":[
		{
			"name":"Scene",
			"nodes":[
				0,
				1,
				2
			]
		}
	],
	"nodes":[
		{
			"mesh":0,
			"name":"Cube",
			"rotation":[
				0,
				0.6576945781707764,
				0,
				0.7532848119735718
			],
			"scale":[
				0.29999998211860657,
				0.25281715393066406,
				0.09999999403953552
			],
			"translation":[
				0.096892811357975,
				0.30229294300079346,
				0.00821676105260849
			]
		},
		{
			"mesh":1,
			"name":"Cilindro",
			"scale":[
				0.8770023584365845,
				0.2631007432937622,
				0.8770023584365845
			],
			"translation":[
				0.0017361482605338097,
				0.30000001192092896,
				0.020181402564048767
			]
		},
		{
			"mesh":2,
			"name":"Cube.001",
			"rotation":[
				0,
				0.6576945781707764,
				0,
				0.7532848119735718
			],
			"scale":[
				0.29999998211860657,
				0.25281715393066406,
				0.09999999403953552
			],
			"translation":[
				-0.280326783657074,
				0.30229294300079346,
				-0.0034312494099140167
			]
		}
	],
	"materials":[
		{
			"doubleSided":true,
			"name":"Material.001",
			"pbrMetallicRoughness":{
				"baseColorFactor":[
					0.016806526109576225,
					0.45078542828559875,
					0.7991028428077698,
					1
				],
				"metallicFactor":0,
				"roughnessFactor":0.5
			}
		},
		{
			"doubleSided":true,
			"name":"Material.002",
			"pbrMetallicRoughness":{
				"baseColorFactor":[
					0.016806526109576225,
					0.45078542828559875,
					0.7991028428077698,
					1
				],
				"metallicFactor":0,
				"roughnessFactor":0.5
			}
		},
		{
			"doubleSided":true,
			"name":"Material.003",
			"pbrMetallicRoughness":{
				"baseColorFactor":[
					0.016806526109576225,
					0.45078542828559875,
					0.7991028428077698,
					1
				],
				"metallicFactor":0,
				"roughnessFactor":0.5
			}
		}
	],
	"meshes":[
		{
			"name":"Cube.001",
			"primitives":[
				{
					"attributes":{
						"POSITION":0,
						"NORMAL":1,
						"TEXCOORD_0":2
					},
					"indices":3,
					"material":0
				}
			]
		},
		{
			"name":"Cilindro",
			"primitives":[
				{
					"attributes":{
						"POSITION":4,
						"NORMAL":5,
						"TEXCOORD_0":6
					},
					"indices":7,
					"material":1
				}
			]
		},
		{
			"name":"Cube.002",
			"primitives":[
				{
					"attributes":{
						"POSITION":8,
						"NORMAL":9,
						"TEXCOORD_0":10
					},
					"indices":11,
					"material":2
				}
			]
		}
	],
	"accessors":[
		{
			"bufferView":0,
			"componentType":5126,
			"count":35,
			"max":[
				1,
				1,
				2.6666665077209473
			],
			"min":[
				-1,
				-1,
				-1
			],
			"type":"VEC3"
		},
		{
			"bufferView":1,
			"componentType":5126,
			"count":35,
			"type":"VEC3"
		},
		{
			"bufferView":2,
			"componentType":5126,
			"count":35,
			"type":"VEC2"
		},
		{
			"bufferView":3,
			"componentType":5123,
			"count":60,
			"type":"SCALAR"
		},
		{
			"bufferView":4,
			"componentType":5126,
			"count":402,
			"max":[
				1,
				1,
				1
			],
			"min":[
				-1,
				-1,
				-1
			],
			"type":"VEC3"
		},
		{
			"bufferView":5,
			"componentType":5126,
			"count":402,
			"type":"VEC3"
		},
		{
			"bufferView":6,
			"componentType":5126,
			"count":402,
			"type":"VEC2"
		},
		{
			"bufferView":7,
			"componentType":5123,
			"count":804,
			"type":"SCALAR"
		},
		{
			"bufferView":8,
			"componentType":5126,
			"count":30,
			"max":[
				1,
				1,
				2.6666665077209473
			],
			"min":[
				-1,
				-1,
				-1
			],
			"type":"VEC3"
		},
		{
			"bufferView":9,
			"componentType":5126,
			"count":30,
			"type":"VEC3"
		},
		{
			"bufferView":10,
			"componentType":5126,
			"count":30,
			"type":"VEC2"
		},
		{
			"bufferView":11,
			"componentType":5123,
			"count":60,
			"type":"SCALAR"
		}
	],
	"bufferViews":[
		{
			"buffer":0,
			"byteLength":420,
			"byteOffset":0,
			"target":34962
		},
		{
			"buffer":0,
			"byteLength":420,
			"byteOffset":420,
			"target":34962
		},
		{
			"buffer":0,
			"byteLength":280,
			"byteOffset":840,
			"target":34962
		},
		{
			"buffer":0,
			"byteLength":120,
			"byteOffset":1120,
			"target":34963
		},
		{
			"buffer":0,
			"byteLength":4824,
			"byteOffset":1240,
			"target":34962
		},
		{
			"buffer":0,
			"byteLength":4824,
			"byteOffset":6064,
			"target":34962
		},
		{
			"buffer":0,
			"byteLength":3216,
			"byteOffset":10888,
			"target":34962
		},
		{
			"buffer":0,
			"byteLength":1608,
			"byteOffset":14104,
			"target":34963
		},
		{
			"buffer":0,
			"byteLength":360,
			"byteOffset":15712,
			"target":34962
		},
		{
			"buffer":0,
			"byteLength":360,
			"byteOffset":16072,
			"target":34962
		},
		{
			"buffer":0,
			"byteLength":240,
			"byteOffset":16432,
			"target":34962
		},
		{
			"buffer":0,
			"byteLength":120,
			"byteOffset":16672,
			"target":34963
		}
	],
	"buffers":[
		{
			"byteLength":16792,
			"uri":"data:application/octet-stream;base64,"
		}
	]
}
