{
	"asset":{
		"generator":"Khronos glTF Blender I/O v3.6.27",
		"version":"2.0"
	},
	"scene":0,
	"scenes":[
		{
			"name":"Scene",
			"nodes":[
				0,
				1
			]
		}
	],
	"nodes":[
		{
			"mesh":0,
			"name":"Cilindro",
			"scale":[
				0.7641886472702026,
				0.22925662994384766,
				0.7641886472702026
			],
			"translation":[
				-0.012245744466781616,
				0.30000001192092896,
				-0.014601290225982666
			]
		},
		{
			"mesh":1,
			"name":"Cilindro.001",
			"scale":[
				0.25,
				0.25,
				0.25
			],
			"translation":[
				0,
				0.30000001192092896,
				0
			]
		}
	],
	"materials":[
		{
			"doubleSided":true,
			"name":"Material.008",
			"pbrMetallicRoughness":{
				"baseColorFactor":[
					0.02028820849955082,
					0.43415361642837524,
					0.02217399701476097,
					1
				],
				"metallicFactor":0,
				"roughnessFactor":0.5
			}
		},
		{
			"doubleSided":true,
			"name":"Material.011",
			"pbrMetallicRoughness":{
				"baseColorFactor":[
					0.02028820849955082,
					0.43415361642837524,
					0.02217399701476097,
					1
				],
				"metallicFactor":0,
				"roughnessFactor":0.5
			}
		}
	],
	"meshes":[
		{
			"name":"Cilindro.003",
			"primitives":[
				{
					"attributes":{
						"POSITION":0,
						"NORMAL":1,
						"TEXCOORD_0":2
					},
					"indices":3,
					"material":0
				}
			]
		},
		{
			"name":"Cilindro.004",
			"primitives":[
				{
					"attributes":{
						"POSITION":4,
						"NORMAL":5,
						"TEXCOORD_0":6
					},
					"indices":7,
					"material":1
				}
			]
		}
	],
	"accessors":[
		{
			"bufferView":0,
			"componentType":5126,
			"count":362,
			"max":[
				1,
				1,
				1
			],
			"min":[
				-1,
				-1,
				-1
			],
			"type":"VEC3"
		},
		{
			"bufferView":1,
			"componentType":5126,
			"count":362,
			"type":"VEC3"
		},
		{
			"bufferView":2,
			"componentType":5126,
			"count":362,
			"type":"VEC2"
		},
		{
			"bufferView":3,
			"componentType":5123,
			"count":738,
			"type":"SCALAR"
		},
		{
			"bufferView":4,
			"componentType":5126,
			"count":192,
			"max":[
				1,
				1,
				1
			],
			"min":[
				-1,
				-1,
				-1
			],
			"type":"VEC3"
		},
		{
			"bufferView":5,
			"componentType":5126,
			"count":192,
			"type":"VEC3"
		},
		{
			"bufferView":6,
			"componentType":5126,
			"count":192,
			"type":"VEC2"
		},
		{
			"bufferView":7,
			"componentType":5123,
			"count":372,
			"type":"SCALAR"
		}
	],
	"bufferViews":[
		{
			"buffer":0,
			"byteLength":4344,
			"byteOffset":0,
			"target":34962
		},
		{
			"buffer":0,
			"byteLength":4344,
			"byteOffset":4344,
			"target":34962
		},
		{
			"buffer":0,
			"byteLength":2896,
			"byteOffset":8688,
			"target":34962
		},
		{
			"buffer":0,
			"byteLength":1476,
			"byteOffset":11584,
			"target":34963
		},
		{
			"buffer":0,
			"byteLength":2304,
			"byteOffset":13060,
			"target":34962
		},
		{
			"buffer":0,
			"byteLength":2304,
			"byteOffset":15364,
			"target":34962
		},
		{
			"buffer":0,
			"byteLength":1536,
			"byteOffset":17668,
			"target":34962
		},
		{
			"buffer":0,
			"byteLength":744,
			"byteOffset":19204,
			"target":34963
		}
	],
	"buffers":[
		{
			"byteLength":19948,
			"uri":"data:application/octet-stream;base64,"
		}
	]
}
