{
	"asset":{
		"generator":"Khronos glTF Blender I/O v3.6.27",
		"version":"2.0"
	},
	"scene":0,
	"scenes":[
		{
			"name":"Scene",
			"nodes":[
				0,
				1
			]
		}
	],
	"nodes":[
		{
			"mesh":0,
			"name":"Cube",
			"rotation":[
				0,
				0.7071068286895752,
				0,
				0.7071068286895752
			],
			"scale":[
				1,
				0.30000001192092896,
				0.19999998807907104
			],
			"translation":[
				-0.18124258518218994,
				0.30000001192092896,
				0.003409266471862793
			]
		},
		{
			"mesh":1,
			"name":"Cilindro",
			"scale":[
				0.7641886472702026,
				0.22925662994384766,
				0.7641886472702026
			],
			"translation":[
				-0.012245744466781616,
				0.30000001192092896,
				-0.014601290225982666
			]
		}
	],
	"materials":[
		{
			"doubleSided":true,
			"name":"Material.001",
			"pbrMetallicRoughness":{
				"baseColorFactor":[
					0.7991030216217041,
					0.23839733004570007,
					0.010329908691346645,
					1
				],
				"metallicFactor":0,
				"roughnessFactor":0.5
			}
		},
		{
			"doubleSided":true,
			"name":"Material.002",
			"pbrMetallicRoughness":{
				"baseColorFactor":[
					0.7991030216217041,
					0.23839733004570007,
					0.010329908691346645,
					1
				],
				"metallicFactor":0,
				"roughnessFactor":0.5
			}
		}
	],
	"meshes":[
		{
			"name":"Cube.001",
			"primitives":[
				{
					"attributes":{
						"POSITION":0,
						"NORMAL":1,
						"TEXCOORD_0":2
					},
					"indices":3,
					"material":0
				}
			]
		},
		{
			"name":"Cilindro",
			"primitives":[
				{
					"attributes":{
						"POSITION":4,
						"NORMAL":5,
						"TEXCOORD_0":6
					},
					"indices":7,
					"material":1
				}
			]
		}
	],
	"accessors":[
		{
			"bufferView":0,
			"componentType":5126,
			"count":30,
			"max":[
				1,
				1,
				2.6666665077209473
			],
			"min":[
				-1,
				-1,
				-1
			],
			"type":"VEC3"
		},
		{
			"bufferView":1,
			"componentType":5126,
			"count":30,
			"type":"VEC3"
		},
		{
			"bufferView":2,
			"componentType":5126,
			"count":30,
			"type":"VEC2"
		},
		{
			"bufferView":3,
			"componentType":5123,
			"count":60,
			"type":"SCALAR"
		},
		{
			"bufferView":4,
			"componentType":5126,
			"count":362,
			"max":[
				1,
				1,
				1
			],
			"min":[
				-1,
				-1,
				-1
			],
			"type":"VEC3"
		},
		{
			"bufferView":5,
			"componentType":5126,
			"count":362,
			"type":"VEC3"
		},
		{
			"bufferView":6,
			"componentType":5126,
			"count":362,
			"type":"VEC2"
		},
		{
			"bufferView":7,
			"componentType":5123,
			"count":738,
			"type":"SCALAR"
		}
	],
	"bufferViews":[
		{
			"buffer":0,
			"byteLength":360,
			"byteOffset":0,
			"target":34962
		},
		{
			"buffer":0,
			"byteLength":360,
			"byteOffset":360,
			"target":34962
		},
		{
			"buffer":0,
			"byteLength":240,
			"byteOffset":720,
			"target":34962
		},
		{
			"buffer":0,
			"byteLength":120,
			"byteOffset":960,
			"target":34963
		},
		{
			"buffer":0,
			"byteLength":4344,
			"byteOffset":1080,
			"target":34962
		},
		{
			"buffer":0,
			"byteLength":4344,
			"byteOffset":5424,
			"target":34962
		},
		{
			"buffer":0,
			"byteLength":2896,
			"byteOffset":9768,
			"target":34962
		},
		{
			"buffer":0,
			"byteLength":1476,
			"byteOffset":12664,
			"target":34963
		}
	],
	"buffers":[
		{
			"byteLength":14140,
			"uri":"data:application/octet-stream;base64,"
		}
	]
}
