{
	"asset":{
		"generator":"Khronos glTF Blender I/O v3.6.27",
		"version":"2.0"
	},
	"scene":0,
	"scenes":[
		{
			"name":"Scene",
			"nodes":[
				0,
				1,
				2
			]
		}
	],
	"nodes":[
		{
			"mesh":0,
			"name":"Cilindro",
			"scale":[
				0.7641886472702026,
				0.22925662994384766,
				0.7641886472702026
			],
			"translation":[
				-0.012245744466781616,
				0.30000001192092896,
				-0.014601290225982666
			]
		},
		{
			"mesh":1,
			"name":"Cubo",
			"scale":[
				0.11999999731779099,
				0.30000001192092896,
				1
			],
			"translation":[
				-0.19729503989219666,
				0.30000001192092896,
				0
			]
		},
		{
			"mesh":2,
			"name":"Cubo.001",
			"scale":[
				0.11999999731779099,
				0.30000001192092896,
				1
			],
			"translation":[
				0.18830981850624084,
				0.30000001192092896,
				0
			]
		}
	],
	"materials":[
		{
			"doubleSided":true,
			"name":"Material.008",
			"pbrMetallicRoughness":{
				"baseColorFactor":[
					0.20863641798496246,
					0.018499860540032387,
					0.7991027235984802,
					1
				],
				"metallicFactor":0,
				"roughnessFactor":0.5
			}
		},
		{
			"doubleSided":true,
			"name":"Material.009",
			"pbrMetallicRoughness":{
				"baseColorFactor":[
					0.20863641798496246,
					0.018499860540032387,
					0.7991027235984802,
					1
				],
				"metallicFactor":0,
				"roughnessFactor":0.5
			}
		},
		{
			"doubleSided":true,
			"name":"Material.010",
			"pbrMetallicRoughness":{
				"baseColorFactor":[
					0.20863641798496246,
					0.018499860540032387,
					0.7991027235984802,
					1
				],
				"metallicFactor":0,
				"roughnessFactor":0.5
			}
		}
	],
	"meshes":[
		{
			"name":"Cilindro.003",
			"primitives":[
				{
					"attributes":{
						"POSITION":0,
						"NORMAL":1,
						"TEXCOORD_0":2
					},
					"indices":3,
					"material":0
				}
			]
		},
		{
			"name":"Cubo",
			"primitives":[
				{
					"attributes":{
						"POSITION":4,
						"NORMAL":5,
						"TEXCOORD_0":6
					},
					"indices":7,
					"material":1
				}
			]
		},
		{
			"name":"Cubo.001",
			"primitives":[
				{
					"attributes":{
						"POSITION":8,
						"NORMAL":9,
						"TEXCOORD_0":10
					},
					"indices":7,
					"material":2
				}
			]
		}
	],
	"accessors":[
		{
			"bufferView":0,
			"componentType":5126,
			"count":363,
			"max":[
				1,
				1,
				1
			],
			"min":[
				-1,
				-1,
				-1
			],
			"type":"VEC3"
		},
		{
			"bufferView":1,
			"componentType":5126,
			"count":363,
			"type":"VEC3"
		},
		{
			"bufferView":2,
			"componentType":5126,
			"count":363,
			"type":"VEC2"
		},
		{
			"bufferView":3,
			"componentType":5123,
			"count":738,
			"type":"SCALAR"
		},
		{
			"bufferView":4,
			"componentType":5126,
			"count":24,
			"max":[
				1,
				1,
				1
			],
			"min":[
				-1,
				-1,
				-1
			],
			"type":"VEC3"
		},
		{
			"bufferView":5,
			"componentType":5126,
			"count":24,
			"type":"VEC3"
		},
		{
			"bufferView":6,
			"componentType":5126,
			"count":24,
			"type":"VEC2"
		},
		{
			"bufferView":7,
			"componentType":5123,
			"count":36,
			"type":"SCALAR"
		},
		{
			"bufferView":8,
			"componentType":5126,
			"count":24,
			"max":[
				1,
				1,
				1
			],
			"min":[
				-1,
				-1,
				-1
			],
			"type":"VEC3"
		},
		{
			"bufferView":9,
			"componentType":5126,
			"count":24,
			"type":"VEC3"
		},
		{
			"bufferView":10,
			"componentType":5126,
			"count":24,
			"type":"VEC2"
		}
	],
	"bufferViews":[
		{
			"buffer":0,
			"byteLength":4356,
			"byteOffset":0,
			"target":34962
		},
		{
			"buffer":0,
			"byteLength":4356,
			"byteOffset":4356,
			"target":34962
		},
		{
			"buffer":0,
			"byteLength":2904,
			"byteOffset":8712,
			"target":34962
		},
		{
			"buffer":0,
			"byteLength":1476,
			"byteOffset":11616,
			"target":34963
		},
		{
			"buffer":0,
			"byteLength":288,
			"byteOffset":13092,
			"target":34962
		},
		{
			"buffer":0,
			"byteLength":288,
			"byteOffset":13380,
			"target":34962
		},
		{
			"buffer":0,
			"byteLength":192,
			"byteOffset":13668,
			"target":34962
		},
		{
			"buffer":0,
			"byteLength":72,
			"byteOffset":13860,
			"target":34963
		},
		{
			"buffer":0,
			"byteLength":288,
			"byteOffset":13932,
			"target":34962
		},
		{
			"buffer":0,
			"byteLength":288,
			"byteOffset":14220,
			"target":34962
		},
		{
			"buffer":0,
			"byteLength":192,
			"byteOffset":14508,
			"target":34962
		}
	],
	"buffers":[
		{
			"byteLength":14700,
			"uri":"data:application/octet-stream;base64,"
		}
	]
}
