{
	"asset":{
		"generator":"Khronos glTF Blender I/O v3.6.27",
		"version":"2.0"
	},
	"scene":0,
	"scenes":[
		{
			"name":"Scene",
			"nodes":[
				0,
				1,
				2
			]
		}
	],
	"nodes":[
		{
			"mesh":0,
			"name":"Cube",
			"rotation":[
				0,
				0.5584813952445984,
				0,
				0.8295170664787292
			],
			"scale":[
				0.7207736968994141,
				0.21623210608959198,
				0.17610575258731842
			],
			"translation":[
				-0.18472743034362793,
				0.30000001192092896,
				0.011378057301044464
			]
		},
		{
			"mesh":0,
			"name":"Cube.002",
			"rotation":[
				0.9210773706436157,
				0,
				0.3893795907497406,
				0
			],
			"scale":[
				-0.7240010499954224,
				-0.21720033884048462,
				-0.17689433693885803
			],
			"translation":[
				0.06019476801156998,
				0.30000001192092896,
				-0.08427312970161438
			]
		},
		{
			"mesh":1,
			"name":"Cilindro",
			"scale":[
				0.8770023584365845,
				0.2631007432937622,
				0.8770023584365845
			],
			"translation":[
				0.0017361482605338097,
				0.30000001192092896,
				0.020181402564048767
			]
		}
	],
	"materials":[
		{
			"doubleSided":true,
			"name":"Material.001",
			"pbrMetallicRoughness":{
				"baseColorFactor":[
					0.4620765745639801,
					0.00030311362934298813,
					0.7991027235984802,
					1
				],
				"metallicFactor":0,
				"roughnessFactor":0.5
			}
		},
		{
			"doubleSided":true,
			"name":"Material.002",
			"pbrMetallicRoughness":{
				"baseColorFactor":[
					0.4620765745639801,
					0.00030311362934298813,
					0.7991027235984802,
					1
				],
				"metallicFactor":0,
				"roughnessFactor":0.5
			}
		}
	],
	"meshes":[
		{
			"name":"Cube.001",
			"primitives":[
				{
					"attributes":{
						"POSITION":0,
						"NORMAL":1,
						"TEXCOORD_0":2
					},
					"indices":3,
					"material":0
				}
			]
		},
		{
			"name":"Cilindro",
			"primitives":[
				{
					"attributes":{
						"POSITION":4,
						"NORMAL":5,
						"TEXCOORD_0":6
					},
					"indices":7,
					"material":1
				}
			]
		}
	],
	"accessors":[
		{
			"bufferView":0,
			"componentType":5126,
			"count":31,
			"max":[
				1,
				1,
				2.6666665077209473
			],
			"min":[
				-1,
				-1,
				-1
			],
			"type":"VEC3"
		},
		{
			"bufferView":1,
			"componentType":5126,
			"count":31,
			"type":"VEC3"
		},
		{
			"bufferView":2,
			"componentType":5126,
			"count":31,
			"type":"VEC2"
		},
		{
			"bufferView":3,
			"componentType":5123,
			"count":60,
			"type":"SCALAR"
		},
		{
			"bufferView":4,
			"componentType":5126,
			"count":402,
			"max":[
				1,
				1,
				1
			],
			"min":[
				-1,
				-1,
				-1
			],
			"type":"VEC3"
		},
		{
			"bufferView":5,
			"componentType":5126,
			"count":402,
			"type":"VEC3"
		},
		{
			"bufferView":6,
			"componentType":5126,
			"count":402,
			"type":"VEC2"
		},
		{
			"bufferView":7,
			"componentType":5123,
			"count":804,
			"type":"SCALAR"
		}
	],
	"bufferViews":[
		{
			"buffer":0,
			"byteLength":372,
			"byteOffset":0,
			"target":34962
		},
		{
			"buffer":0,
			"byteLength":372,
			"byteOffset":372,
			"target":34962
		},
		{
			"buffer":0,
			"byteLength":248,
			"byteOffset":744,
			"target":34962
		},
		{
			"buffer":0,
			"byteLength":120,
			"byteOffset":992,
			"target":34963
		},
		{
			"buffer":0,
			"byteLength":4824,
			"byteOffset":1112,
			"target":34962
		},
		{
			"buffer":0,
			"byteLength":4824,
			"byteOffset":5936,
			"target":34962
		},
		{
			"buffer":0,
			"byteLength":3216,
			"byteOffset":10760,
			"target":34962
		},
		{
			"buffer":0,
			"byteLength":1608,
			"byteOffset":13976,
			"target":34963
		}
	],
	"buffers":[
		{
			"byteLength":15584,
			"uri":"data:application/octet-stream;base64,"
		}
	]
}
