{
	"asset":{
		"generator":"Khronos glTF Blender I/O v3.6.27",
		"version":"2.0"
	},
	"scene":0,
	"scenes":[
		{
			"name":"Scene",
			"nodes":[
				0
			]
		}
	],
	"nodes":[
		{
			"mesh":0,
			"name":"Texto.001",
			"scale":[
				1.3292977809906006,
				1.3292977809906006,
				1.3292977809906006
			],
			"translation":[
				-0.9285085797309875,
				0.20000000298023224,
				0.2559220790863037
			]
		}
	],
	"materials":[
		{
			"doubleSided":true,
			"name":"Material.005",
			"pbrMetallicRoughness":{
				"baseColorFactor":[
					0.8000000715255737,
					0.3514263927936554,
					0.09483987092971802,
					1
				],
				"metallicFactor":0,
				"roughnessFactor":0.5
			}
		}
	],
	"meshes":[
		{
			"name":"Texto",
			"primitives":[
				{
					"attributes":{
						"POSITION":0,
						"NORMAL":1,
						"TEXCOORD_0":2
					},
					"indices":3,
					"material":0
				}
			]
		}
	],
	"accessors":[
		{
			"bufferView":0,
			"componentType":5126,
			"count":270,
			"max":[
				1.412000060081482,
				0.20000000298023224,
				0
			],
			"min":[
				0.0020000000949949026,
				-0.20000000298023224,
				-0.6820000410079956
			],
			"type":"VEC3"
		},
		{
			"bufferView":1,
			"componentType":5126,
			"count":270,
			"type":"VEC3"
		},
		{
			"bufferView":2,
			"componentType":5126,
			"count":270,
			"type":"VEC2"
		},
		{
			"bufferView":3,
			"componentType":5123,
			"count":780,
			"type":"SCALAR"
		}
	],
	"bufferViews":[
		{
			"buffer":0,
			"byteLength":3240,
			"byteOffset":0,
			"target":34962
		},
		{
			"buffer":0,
			"byteLength":3240,
			"byteOffset":3240,
			"target":34962
		},
		{
			"buffer":0,
			"byteLength":2160,
			"byteOffset":6480,
			"target":34962
		},
		{
			"buffer":0,
			"byteLength":1560,
			"byteOffset":8640,
			"target":34963
		}
	],
	"buffers":[
		{
			"byteLength":10200,
			"uri":"data:application/octet-stream;base64,"
		}
	]
}
