{
	"asset":{
		"generator":"Khronos glTF Blender I/O v3.6.27",
		"version":"2.0"
	},
	"scene":0,
	"scenes":[
		{
			"name":"Scene",
			"nodes":[
				0
			]
		}
	],
	"nodes":[
		{
			"mesh":0,
			"name":"Trazar.001"
		}
	],
	"materials":[
		{
			"doubleSided":true,
			"name":"Material.001",
			"pbrMetallicRoughness":{
				"baseColorFactor":[
					0.0007706106989644468,
					0.8000000715255737,
					0.037095461040735245,
					1
				],
				"metallicFactor":0,
				"roughnessFactor":0.5
			}
		}
	],
	"meshes":[
		{
			"name":"Mesh",
			"primitives":[
				{
					"attributes":{
						"POSITION":0,
						"NORMAL":1
					},
					"indices":2,
					"material":0
				}
			]
		}
	],
	"accessors":[
		{
			"bufferView":0,
			"componentType":5126,
			"count":615,
			"max":[
				0.6412792801856995,
				0.2385384887456894,
				0.5822646021842957
			],
			"min":[
				-0.5576725006103516,
				0.03853842616081238,
				-0.7451409697532654
			],
			"type":"VEC3"
		},
		{
			"bufferView":1,
			"componentType":5126,
			"count":615,
			"type":"VEC3"
		},
		{
			"bufferView":2,
			"componentType":5123,
			"count":1812,
			"type":"SCALAR"
		}
	],
	"bufferViews":[
		{
			"buffer":0,
			"byteLength":7380,
			"byteOffset":0,
			"target":34962
		},
		{
			"buffer":0,
			"byteLength":7380,
			"byteOffset":7380,
			"target":34962
		},
		{
			"buffer":0,
			"byteLength":3624,
			"byteOffset":14760,
			"target":34963
		}
	],
	"buffers":[
		{
			"byteLength":18384,
			"uri":"data:application/octet-stream;base64,"
		}
	]
}
